<svg
  width="68"
  height="28"
  viewBox="0 0 68 28"
  fill="none"
  xmlns="http://www.w3.org/2000/svg"
>
  <path
    d="M41.5098 28C38.295 28 36.2209 26.963 34.7691 25.8222C34.4579 26.0296 34.2505 26.237 33.8357 26.4444C31.0357 27.8963 27.9246 28 26.7839 28C22.2209 28 19.8357 26.0296 18.695 24.3704C18.5913 24.2667 18.4876 24.0593 18.3839 23.9556C16.3098 26.4444 13.6135 28 9.56905 28C6.04313 28 3.13942 26.6518 1.48016 24.2667C-0.282799 21.6741 -0.490207 18.1481 0.961645 14.4148C2.93202 9.43704 7.39127 6.42963 12.8876 6.42963C12.9913 6.42963 12.9913 6.42963 13.095 6.42963C13.095 6.32593 13.095 6.11852 13.095 6.01481C12.9913 4.25185 14.132 2.6963 15.7913 2.17778L20.6653 0.311111C21.1839 0.103704 21.7024 0 22.2209 0C23.7765 0 25.2283 0.82963 25.9542 2.28148L28.0283 6.53333C28.6505 6.42963 29.2728 6.42963 29.895 6.42963C32.9024 6.42963 35.2876 7.46667 36.8431 9.33333C39.2283 7.46667 42.2357 6.42963 45.5542 6.42963C47.3172 6.42963 48.9765 6.74074 50.2209 7.36296C50.6357 7.57037 51.0505 7.77778 51.3616 8.08889C53.2283 7.05185 55.4061 6.42963 57.7913 6.42963C61.2135 6.42963 64.1172 7.77778 65.7765 10.163C67.5394 12.6519 67.8505 16.0741 66.7098 19.4963C64.8431 24.6815 60.0728 28 54.4728 28C52.0876 28 49.9098 27.3778 48.2505 26.1333C47.9394 26.4444 47.5246 26.7556 47.1098 26.8593C45.5542 27.5852 43.5839 27.8963 41.6135 28H41.5098Z"
    fill="#07401A"
  />
  <path
    d="M55.0951 21.1556C52.8136 21.1556 52.5025 18.9778 53.1247 16.8C53.6432 15.037 54.9913 13.2741 56.9617 13.2741C59.3469 13.2741 59.5543 15.6593 58.8284 17.7333C58.4136 19.4963 57.0654 21.1556 55.0951 21.1556ZM54.4728 24.3704C58.4136 24.3704 61.8358 22.1926 63.2876 18.2519C64.7395 14.1037 63.0802 10.0593 57.7913 10.0593C53.5395 10.0593 50.221 12.7556 48.9765 16.2815C47.6284 20.2222 49.0802 24.3704 54.4728 24.3704ZM41.5099 24.3704C43.0654 24.3704 44.621 24.0593 45.7617 23.5408C46.1765 22.5037 46.1765 21.4667 45.8654 20.4296C45.1395 20.7408 43.9988 21.0519 42.9617 21.0519C39.9543 21.0519 39.7469 18.8741 40.3691 17.0074C41.0951 15.037 42.858 13.3778 45.658 13.3778C46.3839 13.3778 47.1099 13.4815 47.5247 13.7926C48.2506 12.7556 48.7691 11.7185 48.8728 10.6815C48.2506 10.3704 47.1099 10.163 45.658 10.163C40.9914 10.163 37.3617 12.8593 36.1173 16.5926C34.7691 20.0148 35.7025 24.3704 41.5099 24.3704ZM25.5395 15.8667C26.3691 14.1037 27.6136 13.0667 29.1691 13.0667C30.621 13.0667 30.8284 13.8963 30.621 14.5185C30.3099 15.3482 29.1691 15.8667 25.5395 15.8667ZM26.8876 24.3704C28.4432 24.3704 30.5173 24.0593 32.2802 23.2296C32.5913 22.2963 32.5913 21.2593 32.1765 20.2222C31.0358 20.7407 29.4802 21.1556 28.0284 21.1556C25.9543 21.1556 24.8136 20.4296 24.8136 18.7704C30.5173 18.8741 33.5247 17.837 34.5617 15.3482C35.4951 12.7556 33.8358 10.163 29.8951 10.163C25.6432 10.163 22.5321 13.1704 21.2876 16.4889C20.1469 19.9111 20.8728 24.3704 26.8876 24.3704ZM9.67283 24.3704C13.6136 24.3704 15.8951 22.6074 18.4876 17.0074C19.9395 14 21.0802 10.9926 22.5321 7.98519L24.1913 8.50371C24.6062 8.60742 24.9173 8.40001 24.7099 7.98519L22.7395 3.83705C22.4284 3.62964 22.1173 3.62964 21.9099 3.62964L16.9321 5.49631C16.5173 5.60001 16.5173 6.01482 16.9321 6.11853L18.4876 6.74075C17.2432 9.54075 15.7913 13.6889 14.5469 16.2815C13.1988 19.1852 12.4728 21.2593 10.1913 21.2593C7.90986 21.2593 7.49505 19.4963 8.42838 16.9037C9.56912 13.8963 11.4358 13.0667 13.6136 13.6889C14.2358 12.8593 14.6506 11.6148 14.858 10.4741C14.2358 10.2667 13.5099 10.2667 12.8876 10.2667C9.36172 10.2667 5.93949 12.0296 4.48764 15.8667C2.62098 20.5333 4.38394 24.3704 9.67283 24.3704Z"
    fill="#D0EC1A"
  />
</svg>
