<svg width="332" height="48" viewBox="0 0 332 48" fill="none" xmlns="http://www.w3.org/2000/svg">
<path d="M29.5044 19.7929C21.5661 27.9959 27.7955 34.7043 43.4081 34.9393L41.9205 37.6094C21.9948 37.398 13.5716 29.7306 23.0869 20.3758C30.0366 13.531 45.993 6.35273 60.1748 4.34546L58.9364 6.60665C47.2691 8.80206 35.3287 13.785 29.5044 19.7929Z" fill="#E41D25"/>
<path d="M21.0732 20.3015C10.8421 30.357 19.788 38.6448 41.1872 38.8797L39.078 42.6406C38.3105 42.6406 37.5618 42.6406 36.7946 42.6406C12.3958 42.65 3.07349 31.8706 14.4394 20.1513C23.5264 10.7492 44.1016 2.91736 61.4942 1.93483L60.5149 3.72593C44.8598 5.63906 28.5407 12.954 21.0732 20.3015Z" fill="#E41D25"/>
<path d="M5.71946 20.2642C16.5722 9.24968 40.9142 0.811417 62.5821 0.00291443L61.8144 1.30029C43.0895 2.24054 22.208 10.1429 12.6501 20.0103C0.705218 32.322 10.3712 43.9098 36.0268 43.9098C36.8369 43.9098 37.5854 43.9098 38.3812 43.8676L36.1401 47.8306C33.2395 48.0233 23.5968 48.5592 14.4062 45.7198C-0.782641 41.019 -4.42706 30.5122 5.70528 20.2642" fill="#E41D25"/>
<path d="M47.4849 37.5013C46.0725 37.5671 44.5375 37.6093 43.4922 37.6328L44.9048 34.9675C45.9264 34.9675 47.3767 34.925 48.4877 34.8828L47.4849 37.5013Z" fill="#E41D25"/>
<path d="M43.8744 47.1863C42.0806 47.36 39.8629 47.5482 38.3516 47.6797L40.3148 43.8202C41.6332 43.7592 43.6107 43.651 45.2164 43.543L43.8744 47.1863Z" fill="#E41D25"/>
<path d="M45.6851 42.3979C44.409 42.4823 42.8081 42.5671 40.9766 42.6328L42.8601 38.9238C44.4183 38.9238 45.8687 38.8393 47.041 38.7733L45.6851 42.3979Z" fill="#E41D25"/>
<path d="M129.608 46.7344H119.085C115.158 46.7344 112.493 45.7377 110.925 43.8055C109.357 41.8736 108.99 38.9542 109.8 35.0382L114.537 12.7603C115.53 8.09712 117.088 4.98489 119.085 3.35849C121.081 1.73184 124.504 1.00803 129.109 1.00803H138.205L137.085 6.17913H130.493C128.435 6.17913 127.004 6.61633 126.006 7.48582C125.008 8.35557 124.386 9.91165 123.948 12.0929L123.077 16.0745H134.038L132.734 22.1859H121.764L119.268 34.0042C118.707 36.7448 118.707 38.6722 119.395 39.8567C120.083 41.0413 121.575 41.5962 123.816 41.5962H130.733L129.608 46.7344Z" fill="#E41D25"/>
<path d="M161.062 46.7344H151.843L159.569 10.5371C159.814 9.16432 159.692 8.18665 159.132 7.48606C158.571 6.78581 157.451 6.42844 155.893 6.42844H154.272L145.675 46.7344H136.461L146.174 1.00348H161.505C164.433 1.00348 166.547 1.81205 167.795 3.42931C169.043 5.04638 169.476 7.28854 168.854 10.2126L161.062 46.7344Z" fill="#E41D25"/>
<path d="M201.122 6.1652H192.402L183.805 46.7344H174.586L183.183 6.1652H174.647L175.706 1.00348H202.181L201.122 6.1652Z" fill="#E41D25"/>
<path d="M219.51 16.0558L220.569 11.0823C221.002 9.202 221.002 7.84798 220.569 7.03947C220.135 6.23097 219.383 5.85488 218.078 5.85488C216.642 5.85488 215.583 6.29189 214.9 7.03947C214.217 7.78705 213.652 9.15014 213.28 11.0823L212.221 16.0558H219.51ZM222.249 46.7344H212.955L218.191 22.153H210.903L205.672 46.7344H196.453L203.614 13.0097C204.485 8.96679 206.241 5.85488 208.845 3.76286C211.448 1.6709 214.965 0.528526 219.204 0.528526C223.689 0.528526 226.741 1.52374 228.361 3.51379C229.981 5.56807 230.292 8.68484 229.42 13.0332L222.249 46.7344Z" fill="#E41D25"/>
<path d="M259.236 34.0992C258.295 38.6403 256.496 42.0016 254.005 44.178C251.515 46.3545 248.026 47.4688 243.788 47.4688C239.678 47.4688 236.816 46.3499 235.068 44.0511C233.322 41.7525 233.011 38.5088 233.948 34.0944L240.986 0.999638H250.206L243.228 33.9065C242.667 36.3978 242.545 38.1372 242.795 39.1951C243.045 40.2527 243.85 40.751 245.219 40.751C245.794 40.7729 246.364 40.6473 246.876 40.3866C247.388 40.1255 247.824 39.7381 248.143 39.2609C248.892 38.3206 249.513 36.5247 250.074 33.911L257.052 1.00449H266.27L259.236 34.0992Z" fill="#E41D25"/>
<path d="M320.648 23.9767C321.604 19.791 322.311 15.5529 322.768 11.2842C323.083 8.35535 322.207 6.86524 320.277 6.86524C318.347 6.86524 316.915 8.35535 315.856 11.3451C314.529 15.4889 313.448 19.7068 312.616 23.9767C311.308 30.088 310.559 34.4928 310.436 37.1629C310.314 39.833 311.185 41.0833 313.049 41.0833C314.914 41.0833 316.416 39.6732 317.414 36.6647C318.407 33.7452 319.467 29.5097 320.648 23.9719M330.183 23.9767C328.187 33.247 325.758 39.4898 322.834 42.7007C321.427 44.2439 319.706 45.4687 317.786 46.2931C315.866 47.1178 313.793 47.523 311.703 47.4815C307.216 47.4815 304.17 45.8596 302.545 42.6865C300.921 39.5133 301.132 33.2329 303.106 23.9625C305.097 14.5607 307.588 8.34118 310.455 5.1587C311.891 3.63796 313.631 2.43647 315.562 1.63224C317.494 0.827751 319.574 0.438782 321.666 0.490639C326.214 0.490639 329.327 1.90105 330.946 4.72169C332.565 7.54199 332.316 13.9917 330.202 23.9484L330.183 23.9767Z" fill="#E41D25"/>
<path d="M102.45 46.7344H91.8609C88.0001 46.7344 85.2696 45.7377 83.7016 43.8055C82.1337 41.8736 81.7713 38.9542 82.6421 35.0382L87.3744 12.7603C88.3723 8.09712 89.8696 4.98489 91.9219 3.35849C93.9755 1.73184 97.2806 1.00803 101.951 1.00803H110.987L109.861 6.17913H103.27C101.278 6.17913 99.7809 6.61633 98.8485 7.48582C97.916 8.35557 97.1671 9.91165 96.7294 12.0929L95.8586 16.0745L94.611 22.1859L92.0594 34.0042C91.4985 36.7448 91.5594 38.6722 92.1813 39.8567C92.8031 41.0413 94.3613 41.5962 96.6684 41.5962H103.519L102.45 46.7344Z" fill="#E41D25"/>
<path d="M286.52 29.1497C286.77 27.9697 286.581 27.0954 286.082 26.536C285.583 25.9765 284.773 25.5957 283.653 25.5957H279.792L275.305 46.75H266.086L275.804 1.00493H289.882C293.742 1.00493 296.361 1.87468 297.731 3.67989C299.101 5.48511 299.473 8.09882 298.673 11.7044C298.112 14.4451 297.119 16.6828 295.622 18.3609C294.146 20.0706 292.197 21.3055 290.018 21.9102C292.132 22.1592 293.691 22.9678 294.624 24.336C295.555 25.7039 295.749 27.3867 295.311 29.3752L291.572 46.7361H282.782L286.52 29.1497ZM289.072 13.2602C289.694 10.4399 289.76 8.53123 289.383 7.53938C289.006 6.54753 288.013 6.04448 286.393 6.04448H283.964L280.973 20.1472H283.653C284.297 20.1669 284.936 20.0364 285.52 19.7666C286.104 19.4963 286.618 19.0941 287.019 18.5911C287.824 17.5947 288.512 15.794 289.072 13.2415V13.2602Z" fill="#E41D25"/>
</svg>
