<svg width="24" height="24" viewBox="0 0 24 24" fill="none" xmlns="http://www.w3.org/2000/svg">
  <path d="M22.2819 9.8211C22.5699 8.9303 22.5699 7.9722 22.2819 7.0814L19.9281 1.0769C19.6401 0.1861 19.0641 -0.1019 18.1733 0.1861L11.8808 2.2517C11.4248 2.3937 11.0561 2.6817 10.8554 3.1377L8.9318 7.0814C8.6438 7.9722 8.6438 8.9303 8.9318 9.8211L11.2856 15.8256C11.5736 16.7164 12.1496 17.0044 13.0404 16.7164L19.3329 14.6508C19.7889 14.5088 20.1576 14.2208 20.3583 13.7648L22.2819 9.8211ZM15.5362 10.9699C14.3874 11.3386 13.1513 10.6753 12.7826 9.5265C12.4139 8.3777 13.0772 7.1416 14.226 6.7729C15.3748 6.4042 16.6109 7.0675 16.9796 8.2163C17.3483 9.3651 16.685 10.6012 15.5362 10.9699Z" fill="#0FA47F"/>
  <path d="M7.0815 22.2819C7.9723 22.5699 8.9304 22.5699 9.8212 22.2819L15.8257 19.9281C16.7165 19.6401 17.0045 19.0641 16.7165 18.1733L14.6509 11.8808C14.5089 11.4248 14.2209 11.0561 13.7649 10.8554L9.8212 8.9318C8.9304 8.6438 7.9723 8.6438 7.0815 8.9318L1.077 11.2856C0.1862 11.5736 -0.1018 12.1496 0.1862 13.0404L2.2518 19.3329C2.3938 19.7889 2.6818 20.1576 3.1378 20.3583L7.0815 22.2819ZM5.9327 15.5362C5.564 14.3874 6.2273 13.1513 7.3761 12.7826C8.5249 12.4139 9.761 13.0772 10.1297 14.226C10.4984 15.3748 9.8351 16.6109 8.6863 16.9796C7.5375 17.3483 6.3014 16.685 5.9327 15.5362Z" fill="#0FA47F"/>
  <path d="M16.7165 5.8269C16.7165 4.5908 15.7584 3.6327 14.5223 3.6327C13.2862 3.6327 12.3281 4.5908 12.3281 5.8269C12.3281 7.063 13.2862 8.0211 14.5223 8.0211C15.7584 8.0211 16.7165 7.063 16.7165 5.8269Z" fill="#0FA47F"/>
  <path d="M8.0211 14.5223C8.0211 13.2862 7.063 12.3281 5.8269 12.3281C4.5908 12.3281 3.6327 13.2862 3.6327 14.5223C3.6327 15.7584 4.5908 16.7165 5.8269 16.7165C7.063 16.7165 8.0211 15.7584 8.0211 14.5223Z" fill="#0FA47F"/>
  <path d="M19.3329 9.3651C19.3329 8.129 18.3748 7.1709 17.1387 7.1709C15.9026 7.1709 14.9445 8.129 14.9445 9.3651C14.9445 10.6012 15.9026 11.5593 17.1387 11.5593C18.3748 11.5593 19.3329 10.6012 19.3329 9.3651Z" fill="#0FA47F"/>
  <path d="M11.5593 17.1387C11.5593 15.9026 10.6012 14.9445 9.3651 14.9445C8.129 14.9445 7.1709 15.9026 7.1709 17.1387C7.1709 18.3748 8.129 19.3329 9.3651 19.3329C10.6012 19.3329 11.5593 18.3748 11.5593 17.1387Z" fill="#0FA47F"/>
</svg> 