<svg width="1296" height="540" viewBox="0 0 1296 540" fill="none" xmlns="http://www.w3.org/2000/svg">
<path d="M798.384 539.416C736.551 539.416 696.659 519.47 668.735 497.53C662.751 501.519 658.762 505.508 650.783 509.497C596.929 537.422 537.091 539.416 515.151 539.416C427.388 539.416 381.513 501.519 359.572 469.605C357.577 467.611 355.583 463.622 353.588 461.627C313.696 509.497 261.837 539.416 184.048 539.416C116.231 539.416 60.3825 513.487 28.4689 467.611C-5.43926 417.746 -9.42845 349.93 18.4959 278.124C56.3933 182.383 142.161 124.54 247.875 124.54C249.869 124.54 249.869 124.54 251.864 124.54C251.864 122.545 251.864 118.556 251.864 116.562C249.869 82.6535 271.81 52.7345 303.723 42.7615L397.469 6.85879C407.442 2.8696 417.415 0.875 427.388 0.875C457.307 0.875 485.232 16.8318 499.194 44.7561L539.086 126.535C551.053 124.54 563.021 124.54 574.989 124.54C632.832 124.54 678.708 144.486 708.627 180.389C754.502 144.486 812.346 124.54 876.173 124.54C910.081 124.54 941.995 130.524 965.93 142.491C973.908 146.481 981.887 150.47 987.87 156.454C1023.77 136.508 1065.66 124.54 1111.54 124.54C1177.36 124.54 1233.21 150.47 1265.12 196.346C1299.03 244.216 1305.01 310.038 1283.07 375.859C1247.17 475.589 1155.42 539.416 1047.71 539.416C1001.83 539.416 959.946 527.449 928.032 503.514C922.049 509.497 914.07 515.481 906.092 517.476C876.173 531.438 838.275 537.422 800.378 539.416H798.384Z" fill="#07401A"/>
<path d="M1059.68 407.778C1015.8 407.778 1009.81 365.892 1021.78 324.005C1031.75 290.097 1057.68 256.189 1095.58 256.189C1141.45 256.189 1145.44 302.065 1131.48 341.957C1123.5 375.865 1097.57 407.778 1059.68 407.778ZM1047.71 469.611C1123.5 469.611 1189.33 427.724 1217.25 351.93C1245.17 272.146 1213.26 194.356 1111.54 194.356C1029.76 194.356 965.93 246.216 941.995 314.032C916.065 389.827 943.99 469.611 1047.71 469.611ZM798.384 469.611C828.303 469.611 858.222 463.627 880.163 453.654C888.141 433.708 888.141 413.762 882.157 393.816C868.195 399.8 846.254 405.784 826.308 405.784C768.465 405.784 764.476 363.897 776.444 327.994C790.406 290.097 824.314 258.184 878.168 258.184C892.13 258.184 906.092 260.178 914.071 266.162C928.033 246.216 938.006 226.27 940.001 206.324C928.033 200.34 906.092 196.351 878.168 196.351C788.411 196.351 718.6 248.211 694.665 320.016C668.735 385.838 686.687 469.611 798.384 469.611ZM491.216 306.054C507.173 272.146 531.108 252.2 561.027 252.2C588.951 252.2 592.941 268.157 588.951 280.124C582.968 296.081 561.027 306.054 491.216 306.054ZM517.146 469.611C547.065 469.611 586.957 463.627 620.865 447.67C626.849 429.719 626.849 409.773 618.87 389.827C596.93 399.8 567.011 407.778 539.086 407.778C499.195 407.778 477.254 393.816 477.254 361.903C586.957 363.897 644.8 343.951 664.746 296.081C682.698 246.216 650.784 196.351 574.989 196.351C493.211 196.351 433.373 254.194 409.438 318.021C387.497 383.843 401.459 469.611 517.146 469.611ZM186.043 469.611C261.837 469.611 305.719 435.703 355.584 327.994C383.508 270.151 405.448 212.308 433.373 154.464L465.286 164.437C473.265 166.432 479.249 162.443 475.259 154.464L437.362 74.6806C431.378 70.6914 425.394 70.6914 421.405 70.6914L325.665 106.594C317.686 108.589 317.686 116.567 325.665 118.562L355.584 130.529C331.648 184.383 303.724 264.167 279.789 314.032C253.859 369.881 239.897 409.773 196.016 409.773C152.135 409.773 144.156 375.865 162.108 326C184.048 268.157 219.951 252.2 261.837 264.167C273.805 248.211 281.783 224.275 285.773 202.335C273.805 198.346 259.843 198.346 247.875 198.346C180.059 198.346 114.237 232.254 86.3128 306.054C50.4101 395.811 84.3183 469.611 186.043 469.611Z" fill="#D0EC1A"/>
</svg>
