<svg width="189" height="51" viewBox="0 0 189 51" fill="none" xmlns="http://www.w3.org/2000/svg">
<path fill-rule="evenodd" clip-rule="evenodd" d="M55.4834 14.4022C52.9495 11.4185 49.0944 10.0645 44.9782 10.0645C44.0921 10.0645 43.2312 10.1237 42.3965 10.2366C42.327 10.0583 42.2568 9.90015 42.1914 9.76538L39.2352 3.67916C38.238 1.32548 36.1339 0.362953 34.7138 0.103987C33.4958 -0.118135 32.2099 0.0170188 31.0637 0.495741L23.5649 3.31623C21.7434 3.96861 19.4821 5.75298 19.4821 8.94777C19.4821 9.28149 19.5067 9.59983 19.553 9.90309C19.53 9.90317 19.5076 9.90325 19.486 9.90333C19.4295 9.90353 19.3776 9.90373 19.3305 9.90373C12.2075 9.90373 4.41484 13.3891 1.36483 22.0613C-0.261833 26.585 -0.741695 31.7323 1.65261 36.0623C4.23367 40.73 9.14722 42.7206 14.5215 42.7206C18.5008 42.7206 22.203 41.7848 25.5184 39.0296C26.2944 38.3847 27.0191 37.6637 27.7029 36.8739C30.2457 40.8244 34.7527 42.8813 40.3296 42.8813C43.1349 42.8813 47.3459 42.3114 50.9895 40.5916C51.4525 40.3731 51.878 40.0926 52.2563 39.7611C54.8495 41.9327 58.3726 43.0421 62.4508 43.0421C65.4266 43.0421 68.7296 42.4689 71.3041 41.1778C71.6725 40.9931 72.0156 40.7688 72.3286 40.5108C74.7344 42.0703 77.7185 42.8813 81.0454 42.8813C84.7371 42.8813 88.3915 41.9274 91.54 40.0373C93.2742 41.7891 95.6565 42.5598 98.0371 42.5598C100.915 42.5598 103.229 41.5272 104.945 40.0502C107.121 42.6957 110.387 44.2358 114.227 44.2358C115.84 44.2358 117.572 43.9404 119.269 43.2145C120.287 43.6793 121.297 43.8678 122.115 43.944C123.471 44.0704 124.907 43.9447 126.307 43.7237C128.2 43.4249 129.79 42.1549 130.51 40.3912C132.716 42.5865 135.782 43.7997 139.325 43.7997C140.879 43.7997 142.566 43.5303 144.262 42.7727C145.397 43.2783 146.54 43.4686 147.506 43.53C147.526 43.5312 147.546 43.5325 147.566 43.5336C147.399 44.5385 147.512 45.5873 147.919 46.5581C148.67 48.3478 150.31 49.6047 152.229 49.8613C155.112 50.2469 158.803 50.2469 161.687 49.8613C163.188 49.6605 164.539 48.843 165.416 47.6043L173.132 36.7066L186.762 20.6509C188.057 19.1248 188.418 17.0107 187.702 15.1394C186.986 13.2682 185.308 11.9389 183.327 11.674C180.444 11.2884 177.394 11.2884 174.51 11.674C173.361 11.8277 172.296 12.3438 171.465 13.1385C170.647 12.3562 169.589 11.8304 168.419 11.674C165.536 11.2884 162.646 11.2884 159.763 11.674C159.756 11.6749 159.75 11.6758 159.743 11.6767C159.625 11.6427 159.505 11.6127 159.384 11.5867C156.386 10.9423 153.041 10.9423 150.043 11.5867C149.951 11.6065 149.86 11.6286 149.77 11.6529C148.351 11.1986 146.806 10.9828 145.096 10.9828C143.701 10.9828 142.149 11.2106 140.549 11.7211C140.609 10.7051 140.387 9.68152 139.891 8.77041C139.147 7.40378 137.858 6.41944 136.347 6.06365C133.419 5.37435 130.03 5.39606 127.049 6.04244C125.195 6.44457 123.682 7.78345 123.053 9.57861C122.76 10.413 122.452 11.2599 122.131 12.1261C121.398 12.0351 120.637 11.9934 119.844 11.9934C114.655 11.9934 107.111 15.1653 103.441 24.7543C102.58 24.4083 101.671 24.2001 100.76 24.1083C100.817 21.5828 100.294 19.0269 98.9496 16.7075C96.3813 12.2752 91.6246 10.0645 86.0147 10.0645C82.7014 10.0645 79.6681 10.8218 77.025 12.1531C76.7007 11.8796 76.3418 11.6416 75.9527 11.4464C73.8694 10.4016 71.1028 10.0645 68.7025 10.0645C63.6845 10.0645 59.0935 11.6484 55.4834 14.4022ZM65.5733 28.5297L65.573 28.5206Z" fill="#A595FF"/>
<path fill-rule="evenodd" clip-rule="evenodd" d="M36.6428 12.9677L34.0781 12.1638C32.6852 15.0576 31.4776 17.8895 30.2637 20.7364C29.5217 22.4765 28.7773 24.2222 27.9867 25.991C23.9792 34.5124 20.613 37.2457 14.5216 37.2457C6.34639 37.2457 3.78161 31.4575 6.50668 23.9008C8.59057 17.9519 13.8804 15.3794 19.3306 15.3794C20.2924 15.3794 21.4145 15.3794 22.3763 15.701C22.0557 17.4696 21.4145 19.3989 20.4527 20.6852C17.0864 19.7205 14.201 20.846 12.4377 25.5086C10.8348 29.5282 11.6362 32.2614 15.0025 32.2614C18.2721 32.2614 19.4749 29.6356 21.2935 25.6652C21.4365 25.3532 21.5832 25.0328 21.7351 24.7047C22.7477 22.5887 23.8492 19.8044 24.9459 17.0319C25.9326 14.5378 26.9155 12.0533 27.8264 10.0736L25.4219 9.4305C24.7807 9.26972 24.7807 8.62659 25.4219 8.46581L33.1163 5.57175C33.4369 5.41096 34.0781 5.41096 34.2384 5.89331L37.284 12.1638C37.6046 12.8069 37.284 13.2893 36.6428 12.9677ZM119.844 17.4691C116.704 17.4691 111.044 19.4651 108.303 27.3601V27.3626C106.267 33.3049 108.478 38.7608 114.227 38.7608C116.306 38.7608 118.826 37.9614 120.816 34.9012C120.108 37.6941 120.684 39.0689 125.459 38.3153C126.997 33.7752 129.558 26.7198 131.793 20.5632L131.795 20.5586C133.096 16.9746 134.286 13.6949 135.1 11.3945C133.023 10.9056 130.457 10.9056 128.203 11.3945C127.539 13.2904 126.801 15.235 126.045 17.2304L126.044 17.2327L126.037 17.2529C125.787 17.9109 125.536 18.5745 125.284 19.2436C123.868 18.0012 122.365 17.4691 119.844 17.4691ZM121.921 28.8266C120.771 32.4189 119.621 34.1043 117.189 34.1043C115.024 34.1043 113.608 32.4622 115.067 27.9839C116.085 24.8345 118.296 22.0416 121.568 22.0416C122.319 22.0416 123.159 22.1307 124.088 22.4846C123.334 24.5697 122.583 26.6981 121.921 28.8266ZM151.187 16.9408C153.431 16.4585 155.996 16.4585 158.24 16.9408L150.706 37.8424C146.058 38.6463 144.936 37.3601 145.416 34.7876C143.493 37.5209 141.409 38.3248 139.325 38.3248C133.073 38.3248 131.15 32.6974 133.073 26.5877C136.119 18.5487 141.89 16.4585 145.096 16.4585C147.661 16.4585 149.264 17.1016 150.706 18.3879L151.187 16.9408ZM142.371 33.6621C144.775 33.6621 145.897 31.7327 147.18 28.1955L149.584 21.6035C148.462 21.2819 147.661 21.1212 146.859 21.1212C143.493 21.1212 141.249 24.0152 140.127 27.2309C138.684 31.8935 140.127 33.6621 142.371 33.6621ZM168.339 25.623L175.232 17.1016C177.636 16.7801 180.201 16.7801 182.606 17.1016L168.82 33.3405L160.965 44.4345C158.561 44.756 155.355 44.756 152.95 44.4345L162.408 31.7327C161.405 29.9948 161.284 26.956 161.159 23.83C161.065 21.4613 160.968 19.0423 160.484 17.1016C162.889 16.7801 165.293 16.7801 167.698 17.1016C168.002 18.244 167.982 19.7111 167.962 21.1782C167.939 22.8082 167.917 24.4383 168.339 25.623ZM94.8313 32.9046C95.4725 31.136 96.9151 29.5282 99.6402 29.5282C102.846 29.5282 103.487 31.7791 102.846 33.8693C102.205 35.4771 100.602 37.0849 98.0372 37.0849C94.9916 37.0849 94.1901 34.8339 94.8313 32.9046ZM68.7026 20.5244C69.8247 20.5244 70.9468 20.6852 71.588 21.1675C72.7101 19.5597 73.5116 17.9519 73.5116 16.3441C72.5498 15.8617 70.7865 15.5402 68.7026 15.5402C61.6495 15.5402 56.039 19.5597 53.9551 25.3478C52.0315 30.8144 53.4742 37.5672 62.451 37.5672C64.8554 37.5672 67.2599 37.0849 68.8629 36.281C69.3438 34.6732 69.5041 33.0653 69.0232 31.4575C67.9011 31.9399 66.2981 32.4222 64.5348 32.4222C60.0465 32.4222 59.5656 29.0458 60.5274 26.1517C61.6495 22.9361 64.3745 20.5244 68.7026 20.5244ZM72.5497 25.0263C74.4733 19.5597 79.4426 15.5402 86.0148 15.5402C94.3504 15.5402 96.7548 21.8106 94.5107 28.0811C92.4268 34.1908 86.9766 37.4064 81.0456 37.4064C72.8703 37.4064 70.4658 30.9752 72.5497 25.0263ZM82.1676 32.583C85.053 32.583 87.1369 30.0105 87.9384 27.2772C89.0605 24.0616 88.7399 20.3636 85.2133 20.3636C82.1676 20.3636 80.0838 23.2577 79.2823 25.8302C78.1602 29.2066 78.6411 32.583 82.1676 32.583ZM44.9783 15.5402C38.4061 15.5402 33.5971 20.2028 31.8338 25.1871C29.9103 30.4928 31.1927 37.4064 40.3297 37.4064C42.5739 37.4064 45.9401 36.9241 48.6652 35.6378C49.1461 34.1908 49.1461 32.583 48.5049 31.136C46.7416 31.9399 44.3371 32.583 42.2533 32.583C39.0473 32.583 37.284 31.4575 37.284 28.885C46.1004 29.0458 50.7491 27.438 52.1918 23.5792C53.6345 19.5597 51.0697 15.5402 44.9783 15.5402ZM46.2607 22.293C45.7798 23.5792 43.8563 24.3831 38.4061 24.3831C39.6885 21.6499 41.6121 20.042 44.0166 20.042C46.2607 20.042 46.5813 21.3283 46.2607 22.293Z" fill="#FCFBF6"/>
</svg>
