<svg width="1297" height="540" viewBox="0 0 1297 540" fill="none" xmlns="http://www.w3.org/2000/svg">
<path d="M798.413 539.416C736.581 539.416 696.689 519.47 668.764 497.53C662.781 501.519 658.791 505.508 650.813 509.497C596.959 537.422 537.121 539.416 515.18 539.416C427.418 539.416 381.542 501.519 359.602 469.605C357.607 467.611 355.613 463.622 353.618 461.627C313.726 509.497 261.867 539.416 184.077 539.416C116.261 539.416 60.4122 513.487 28.4987 467.611C-5.40947 417.746 -9.39866 349.93 18.5257 278.124C56.4231 182.383 142.191 124.54 247.904 124.54C249.899 124.54 249.899 124.54 251.894 124.54C251.894 122.545 251.894 118.556 251.894 116.562C249.899 82.6535 271.84 52.7345 303.753 42.7615L397.499 6.85879C407.472 2.8696 417.445 0.875 427.418 0.875C457.337 0.875 485.262 16.8318 499.224 44.7561L539.116 126.535C551.083 124.54 563.051 124.54 575.018 124.54C632.862 124.54 678.737 144.486 708.656 180.389C754.532 144.486 812.375 124.54 876.203 124.54C910.111 124.54 942.024 130.524 965.96 142.491C973.938 146.481 981.916 150.47 987.9 156.454C1023.8 136.508 1065.69 124.54 1111.57 124.54C1177.39 124.54 1233.24 150.47 1265.15 196.346C1299.06 244.216 1305.04 310.038 1283.1 375.859C1247.2 475.589 1155.45 539.416 1047.74 539.416C1001.86 539.416 959.976 527.449 928.062 503.514C922.078 509.497 914.1 515.481 906.122 517.476C876.203 531.438 838.305 537.422 800.408 539.416H798.413Z" fill="#D0EC1A"/>
<path d="M1059.71 407.778C1015.83 407.778 1009.84 365.892 1021.81 324.005C1031.78 290.097 1057.71 256.189 1095.61 256.189C1141.48 256.189 1145.47 302.065 1131.51 341.957C1123.53 375.865 1097.6 407.778 1059.71 407.778ZM1047.74 469.611C1123.53 469.611 1189.36 427.724 1217.28 351.93C1245.2 272.146 1213.29 194.356 1111.57 194.356C1029.79 194.356 965.96 246.216 942.025 314.032C916.095 389.827 944.02 469.611 1047.74 469.611ZM798.414 469.611C828.333 469.611 858.252 463.627 880.193 453.654C888.171 433.708 888.171 413.762 882.187 393.816C868.225 399.8 846.284 405.784 826.338 405.784C768.495 405.784 764.506 363.897 776.473 327.994C790.436 290.097 824.344 258.184 878.198 258.184C892.16 258.184 906.122 260.178 914.101 266.162C928.063 246.216 938.036 226.27 940.03 206.324C928.063 200.34 906.122 196.351 878.198 196.351C788.441 196.351 718.63 248.211 694.695 320.016C668.765 385.838 686.717 469.611 798.414 469.611ZM491.246 306.054C507.203 272.146 531.138 252.2 561.057 252.2C588.981 252.2 592.971 268.157 588.981 280.124C582.998 296.081 561.057 306.054 491.246 306.054ZM517.176 469.611C547.095 469.611 586.987 463.627 620.895 447.67C626.879 429.719 626.879 409.773 618.9 389.827C596.96 399.8 567.041 407.778 539.116 407.778C499.224 407.778 477.284 393.816 477.284 361.903C586.987 363.897 644.83 343.951 664.776 296.081C682.727 246.216 650.814 196.351 575.019 196.351C493.241 196.351 433.403 254.194 409.468 318.021C387.527 383.843 401.489 469.611 517.176 469.611ZM186.073 469.611C261.867 469.611 305.748 435.703 355.613 327.994C383.538 270.151 405.478 212.308 433.403 154.464L465.316 164.437C473.295 166.432 479.278 162.443 475.289 154.464L437.392 74.6806C431.408 70.6914 425.424 70.6914 421.435 70.6914L325.694 106.594C317.716 108.589 317.716 116.567 325.694 118.562L355.613 130.529C331.678 184.383 303.754 264.167 279.819 314.032C253.889 369.881 239.927 409.773 196.046 409.773C152.164 409.773 144.186 375.865 162.137 326C184.078 268.157 219.981 252.2 261.867 264.167C273.835 248.211 281.813 224.275 285.802 202.335C273.835 198.346 259.873 198.346 247.905 198.346C180.089 198.346 114.267 232.254 86.3428 306.054C50.44 395.811 84.3482 469.611 186.073 469.611Z" fill="#07401A"/>
</svg>
