<svg width="1023" height="120" viewBox="0 0 1023 120" fill="none" xmlns="http://www.w3.org/2000/svg">
<g opacity="0.4">
<path opacity="0.1" d="M565.097 1074.58C316.5 1074.58 177.534 955.753 104.719 856.078C-2.94381 708.703 -26.6251 516.047 38.0062 313.603C40.0312 307.219 42.4499 300.3 45.1781 293.156C90.1218 177.563 165.497 78.3656 263.175 6.19688C325.837 -40.0969 399.356 -75.675 476.531 -97.1063C522.797 -165.056 590.606 -216.975 668.878 -244.059L815.662 -299.1C861.45 -317.353 911.766 -327 961.237 -327C1109.43 -327 1246.12 -241.388 1309.65 -108.863C1352.16 -25.9875 1373.68 16.0031 1374.22 17.1094C1434.55 137.766 1428.76 277.519 1358.7 390.863C1327.82 440.869 1283.07 485.025 1231.94 516.244C1218.1 548.222 1200.3 588.412 1179.94 630.628C1113.2 771.984 1044.82 867.103 958.341 938.766C846.516 1031.44 721.556 1074.58 565.125 1074.58H565.097Z" stroke="#D0EC1A" stroke-width="2.8125" stroke-miterlimit="10"/>
<path opacity="0.2" d="M565.098 1040.83C330.676 1040.83 200.176 929.541 131.973 836.166C30.8353 697.734 8.89785 515.794 70.1541 323.869C71.9822 318.047 74.2041 311.775 76.6791 305.278C119.288 195.703 190.698 101.738 283.229 33.3375C346.088 -13.0969 419.945 -47.9156 497.682 -67.8281C540.039 -135.131 604.36 -186.15 680.298 -212.306L827.813 -267.628C869.748 -284.391 915.845 -293.25 961.182 -293.25C1096.66 -293.25 1221.48 -215.006 1279.36 -93.9C1321.94 -10.875 1343.48 31.125 1343.96 32.1C1399.06 142.266 1393.83 269.756 1329.96 373.088C1299.81 421.884 1255.85 463.988 1205.28 492.731C1189.44 529.463 1170.74 571.903 1149.51 615.947C1084.9 752.803 1019.26 844.406 936.77 912.75C831.329 1000.13 713.232 1040.83 565.098 1040.83Z" stroke="#D0EC1A" stroke-width="2.8125" stroke-miterlimit="10"/>
<path opacity="0.3" d="M565.095 1007.08C344.849 1007.08 222.814 903.302 159.224 816.255C64.611 686.739 44.3891 515.514 102.298 334.136C103.958 328.905 105.927 323.223 108.177 317.373C148.423 213.845 215.867 125.083 303.28 60.4796C366.449 13.8202 440.839 -20.1829 519.336 -38.3798C557.502 -105.149 618.139 -155.295 691.714 -180.552L840.017 -236.155C878.099 -251.427 919.977 -259.499 961.208 -259.499C1083.95 -259.499 1196.9 -188.624 1249.12 -78.9079C1291.8 4.30461 1313.34 46.3327 1313.75 47.1765C1363.59 146.823 1358.92 262.08 1301.27 355.398C1271.93 402.873 1228.82 442.727 1178.9 468.742C1160.87 510.761 1141.21 555.564 1119.13 601.352C1056.66 733.68 993.749 821.795 915.252 886.82C816.195 968.889 704.933 1007.14 565.095 1007.14V1007.08Z" stroke="#D0EC1A" stroke-width="2.8125" stroke-miterlimit="10"/>
<path opacity="0.4" d="M565.099 973.331C358.999 973.331 245.458 877.088 186.48 796.341C98.3926 675.769 79.9145 515.259 134.449 344.372C135.911 339.703 137.711 334.641 139.68 329.438C177.593 231.956 241.071 148.369 323.336 87.5907C386.983 40.5657 462.133 7.46253 541.699 -8.73747C574.83 -74.2687 632.768 -124.781 703.108 -148.8L852.227 -204.712C886.427 -218.494 924.086 -225.75 961.183 -225.75C1071.21 -225.75 1172.26 -162.272 1218.84 -63.975C1282.99 61.0969 1283.13 61.3781 1283.5 62.1656C1328.07 151.35 1324 254.344 1272.53 337.622C1244.09 383.663 1201.91 421.013 1152.74 443.963C1133.34 489.384 1112.41 537.478 1088.7 586.613C1028.35 714.413 968.186 799.041 893.711 860.775C801.04 937.556 696.64 973.331 565.099 973.331Z" stroke="#D0EC1A" stroke-width="2.8125" stroke-miterlimit="10"/>
<path opacity="0.5" d="M565.099 939.582C373.174 939.582 268.099 850.875 213.733 776.456C132.17 664.8 115.436 515.007 166.595 354.666C167.889 350.56 169.464 346.116 171.18 341.588C206.73 250.153 266.27 171.769 343.389 114.788C407.739 67.2284 483.958 35.1377 564.958 21.3002C592.352 -43.2185 646.942 -94.0685 714.47 -116.962L864.489 -173.212C894.836 -185.475 928.249 -191.972 961.211 -191.972C1058.47 -191.972 1147.65 -135.89 1188.57 -49.0404C1231.47 34.6033 1253.05 76.6784 1253.29 77.1846C1292.64 155.85 1289.12 246.638 1243.84 319.903C1216.42 364.313 1175.3 398.85 1126.98 418.425C1106.7 466.013 1083.98 518.803 1058.33 571.988C1000.11 695.288 942.677 776.428 872.195 834.816C785.936 906.31 688.342 939.61 565.127 939.61L565.099 939.582Z" stroke="#D0EC1A" stroke-width="2.8125" stroke-miterlimit="10"/>
<path opacity="0.6" d="M565.097 905.831C387.347 905.831 290.738 824.634 240.985 756.544C165.947 653.803 150.929 514.725 198.741 364.931C199.866 361.359 201.216 357.534 202.679 353.681C235.894 268.294 291.469 195.113 363.441 141.928C428.832 93.6094 506.597 62.6438 589.594 51.7031C610.238 -12 660.61 -63.2437 725.804 -85.1812L876.75 -141.797C903.216 -152.569 932.41 -158.25 961.21 -158.25C1045.73 -158.25 1122.98 -109.566 1158.28 -34.1906C1222.72 91.4719 1222.91 91.8657 1223.05 92.1188C1257.2 160.378 1254.24 238.903 1215.15 302.128C1188.85 344.681 1149 376.041 1101.64 391.791C1078.91 445.172 1055.4 500.353 1027.92 557.306C971.841 676.078 917.138 753.731 850.65 808.8C770.775 874.978 680.044 905.831 565.097 905.831Z" stroke="#D0EC1A" stroke-width="2.8125" stroke-miterlimit="10"/>
<path opacity="0.7" d="M565.099 872.081C401.524 872.081 313.38 798.422 268.239 736.631C199.699 642.835 186.452 514.444 230.917 375.197C231.846 372.216 232.971 369.038 234.208 365.803C297.208 203.86 441.996 97.4908 616.399 82.7252C628.549 20.1752 674.139 -32.3904 737.111 -53.3717L889.071 -110.353C911.627 -119.606 936.574 -124.472 961.211 -124.472C1032.93 -124.472 1098.29 -83.2123 1127.96 -19.3123C1127.96 -19.3123 1192.62 106.744 1192.85 107.194C1221.73 164.963 1219.34 231.197 1186.46 284.41C1161.77 324.375 1122.51 352.641 1076.89 363.891C1075.29 367.631 1071.63 376.294 1071.38 376.8C1048.54 430.435 1024.94 485.897 997.549 542.653C943.605 656.897 891.63 731.063 829.136 782.841C755.646 843.731 671.749 872.11 565.127 872.11L565.099 872.081Z" stroke="#D0EC1A" stroke-width="2.8125" stroke-miterlimit="10"/>
<path opacity="0.8" d="M565.096 838.331C415.696 838.331 336.018 772.21 295.49 716.719C233.474 631.838 221.971 514.191 263.062 385.435C263.821 383.044 264.721 380.485 265.706 377.897C327.496 219.019 472.875 119.091 646.912 114.872C647.531 52.8846 688.087 -1.70605 748.331 -21.5342L901.387 -78.9373C920.062 -86.6436 940.706 -90.7217 961.181 -90.7217C1020.1 -90.7217 1073.54 -56.9154 1097.59 -4.54667C1140.81 79.7346 1162.49 122.016 1162.64 122.297C1186.27 169.519 1184.41 223.491 1157.72 266.663C1134.68 303.928 1096.43 328.228 1052.84 334.163C1048.9 343.36 1044.94 352.697 1040.89 362.231C1040.75 362.625 1040.58 362.991 1040.41 363.357C1017.66 416.794 994.143 472.031 967.143 528C915.309 637.8 866.09 708.394 807.618 756.853C740.512 812.456 663.478 838.36 565.124 838.36L565.096 838.331Z" stroke="#D0EC1A" stroke-width="2.8125" stroke-miterlimit="10"/>
<path opacity="0.9" d="M565.098 804.581C429.873 804.581 358.661 745.969 322.745 696.806C267.254 620.841 257.467 513.909 295.211 395.7C295.801 393.844 296.476 391.903 297.208 389.991C355.173 240.956 493.576 148.453 658.501 148.453C666.376 148.453 675.573 148.453 685.642 148.875C682.379 138.441 680.664 127.472 680.664 116.278C680.664 68.0156 712.304 25.5469 759.498 10.3031L913.82 -47.5781C928.558 -53.7656 944.926 -57 961.211 -57C1007.31 -57 1048.79 -30.675 1067.21 10.1344C1132.21 136.894 1132.38 137.203 1132.46 137.372C1150.83 174.103 1149.51 215.728 1129.03 248.887C1108.56 281.991 1072.28 301.791 1031.92 301.791C1031.27 301.791 1030.65 301.791 1030 301.791C1023.31 317.316 1016.62 333.066 1009.64 349.463L1009.5 349.8C986.833 403.041 963.404 458.081 936.686 513.487C887.045 618.675 840.583 685.725 786.076 730.894C725.354 781.209 655.154 804.637 565.126 804.637L565.098 804.581Z" stroke="#D0EC1A" stroke-width="2.8125" stroke-miterlimit="10"/>
<path opacity="0.95" d="M565.098 770.831C444.02 770.831 381.302 719.756 349.998 676.894C301.033 609.872 292.989 513.656 327.358 405.966C327.752 404.7 328.23 403.406 328.708 402.141C381.47 266.438 507.836 182.203 658.501 182.203C681.423 182.203 712.811 182.203 743.214 192.328C743.439 192.413 743.692 192.497 743.917 192.553C745.633 188.391 747.32 184.228 749.036 180.094C727.661 165.806 714.414 142.35 714.414 116.278C714.414 82.3594 736.914 52.7438 770.551 42.1969L926.308 -16.2187C937.08 -20.8312 949.117 -23.25 961.211 -23.25C994.455 -23.25 1023.93 -4.46249 1036.75 24.7031C1080.42 109.866 1102.29 152.503 1102.34 152.616C1115.39 178.716 1114.6 207.994 1100.29 231.113C1086.03 254.203 1060.44 268.013 1031.89 268.013C1024.32 268.013 1016.65 267.056 1009.08 265.172C998.926 288.375 988.914 311.888 978.508 336.356C955.923 389.4 932.636 444.103 906.198 498.919C858.752 599.466 815.045 663 764.505 704.85C710.195 749.85 646.83 770.831 565.098 770.831Z" stroke="#D0EC1A" stroke-width="2.8125" stroke-miterlimit="10"/>
<path d="M565.095 737.081C458.192 737.081 403.939 693.516 377.248 656.981C334.808 598.875 328.508 513.375 359.53 416.231C359.755 415.556 359.98 414.91 360.233 414.263C407.792 291.947 522.092 215.981 658.526 215.981C680.295 215.981 707.351 215.981 732.58 224.391C745.826 228.806 754.686 240.76 755.586 254.147C768.13 222.647 780.786 191.147 793.048 162.544L781.798 158.522C761.633 152.672 748.217 135.938 748.217 116.306C748.217 96.7877 761.492 80.1377 781.489 74.1752L939.017 15.1127C945.795 12.1033 953.445 10.5283 961.236 10.5283C981.655 10.5283 998.951 21.6377 1006.24 39.1033C1006.24 39.1033 1072.25 167.803 1072.3 167.916C1080.09 183.525 1079.87 200.091 1071.65 213.394C1063.58 226.472 1048.73 234.291 1031.94 234.291C1027.13 234.291 1022.18 233.672 1017.26 232.435C1016.64 232.266 1016 232.097 1015.38 231.9L990.43 224.11C975.889 256.453 962.023 289.078 947.511 323.166C925.123 375.788 901.948 430.238 875.792 484.378C830.539 580.313 789.589 640.303 743.042 678.863C695.117 718.575 638.586 737.081 565.151 737.081H565.095Z" stroke="#D0EC1A" stroke-width="2.8125" stroke-miterlimit="10"/>
<path d="M565.095 703.333C691.855 703.333 761.886 646.633 845.277 469.867C891.964 373.145 928.667 276.423 972.036 183.02L1025.39 199.698C1038.72 203.045 1048.73 196.351 1042.07 183.02L975.355 52.9421C972.036 42.9296 958.677 42.9296 952.011 46.2765L791.924 106.323C778.592 109.67 778.592 123.002 791.924 126.348L838.611 143.026C798.589 229.736 751.902 363.161 711.852 446.552C668.483 539.955 648.486 603.32 571.761 603.32C495.036 603.32 485.052 546.62 518.408 463.23C555.111 366.508 615.13 339.817 681.842 359.842C701.867 333.152 715.199 293.13 721.864 256.455C701.839 249.789 678.495 249.789 658.499 249.789C548.417 249.789 438.364 306.489 391.677 426.555C341.642 583.323 395.024 703.389 565.124 703.389L565.095 703.333Z" stroke="#D0EC1A" stroke-width="2.8125" stroke-miterlimit="10"/>
</g>
</svg>
