<svg
  width="20"
  height="20"
  viewBox="0 0 20 20"
  fill="none"
  xmlns="http://www.w3.org/2000/svg"
>
  <mask
    id="mask0_5943_27744"
    style="mask-type: alpha"
    maskUnits="userSpaceOnUse"
    x="0"
    y="0"
    width="20"
    height="20"
  >
    <rect width="20" height="20" fill="red" />
  </mask>
  <g mask="url(#mask0_5943_27744)">
    <mask id="path-2-inside-1_5943_27744" fill="white">
      <path
        fill-rule="evenodd"
        clip-rule="evenodd"
        d="M9.97616 2C5.56555 2 2 5.66667 2 10.2028C2 13.8288 4.28457 16.8982 7.45388 17.9845C7.85012 18.0662 7.99527 17.808 7.99527 17.5908C7.99527 17.4007 7.9822 16.7488 7.9822 16.0697C5.76343 16.5587 5.30139 15.0918 5.30139 15.0918C4.94482 14.1412 4.41649 13.8968 4.41649 13.8968C3.69029 13.3943 4.46939 13.3943 4.46939 13.3943C5.27494 13.4487 5.69763 14.2363 5.69763 14.2363C6.41061 15.4857 7.55951 15.1327 8.02171 14.9153C8.08767 14.3857 8.2991 14.019 8.52359 13.8153C6.75396 13.6252 4.89208 12.919 4.89208 9.76817C4.89208 8.87183 5.20882 8.1385 5.71069 7.56817C5.63151 7.3645 5.35412 6.52233 5.79004 5.39517C5.79004 5.39517 6.46351 5.17783 7.98204 6.23717C8.63218 6.05761 9.30265 5.96627 9.97616 5.9655C10.6496 5.9655 11.3362 6.06067 11.9701 6.23717C13.4888 5.17783 14.1623 5.39517 14.1623 5.39517C14.5982 6.52233 14.3207 7.3645 14.2415 7.56817C14.7566 8.1385 15.0602 8.87183 15.0602 9.76817C15.0602 12.919 13.1984 13.6115 11.4155 13.8153C11.7061 14.0733 11.9569 14.5622 11.9569 15.3363C11.9569 16.4363 11.9438 17.3192 11.9438 17.5907C11.9438 17.808 12.0891 18.0662 12.4852 17.9847C15.6545 16.898 17.9391 13.8288 17.9391 10.2028C17.9522 5.66667 14.3736 2 9.97616 2Z"
      />
    </mask>
    <path
      fill-rule="evenodd"
      clip-rule="evenodd"
      d="M9.97616 2C5.56555 2 2 5.66667 2 10.2028C2 13.8288 4.28457 16.8982 7.45388 17.9845C7.85012 18.0662 7.99527 17.808 7.99527 17.5908C7.99527 17.4007 7.9822 16.7488 7.9822 16.0697C5.76343 16.5587 5.30139 15.0918 5.30139 15.0918C4.94482 14.1412 4.41649 13.8968 4.41649 13.8968C3.69029 13.3943 4.46939 13.3943 4.46939 13.3943C5.27494 13.4487 5.69763 14.2363 5.69763 14.2363C6.41061 15.4857 7.55951 15.1327 8.02171 14.9153C8.08767 14.3857 8.2991 14.019 8.52359 13.8153C6.75396 13.6252 4.89208 12.919 4.89208 9.76817C4.89208 8.87183 5.20882 8.1385 5.71069 7.56817C5.63151 7.3645 5.35412 6.52233 5.79004 5.39517C5.79004 5.39517 6.46351 5.17783 7.98204 6.23717C8.63218 6.05761 9.30265 5.96627 9.97616 5.9655C10.6496 5.9655 11.3362 6.06067 11.9701 6.23717C13.4888 5.17783 14.1623 5.39517 14.1623 5.39517C14.5982 6.52233 14.3207 7.3645 14.2415 7.56817C14.7566 8.1385 15.0602 8.87183 15.0602 9.76817C15.0602 12.919 13.1984 13.6115 11.4155 13.8153C11.7061 14.0733 11.9569 14.5622 11.9569 15.3363C11.9569 16.4363 11.9438 17.3192 11.9438 17.5907C11.9438 17.808 12.0891 18.0662 12.4852 17.9847C15.6545 16.898 17.9391 13.8288 17.9391 10.2028C17.9522 5.66667 14.3736 2 9.97616 2Z"
      fill="oklch(55.3% 0.013 58.071)"
      stroke="oklch(55.3% 0.013 58.071)"
      stroke-width="2.21667"
      mask="url(#path-2-inside-1_5943_27744)"
    />
  </g>
</svg>
