<svg width="751" height="750" viewBox="0 0 751 750" fill="none" xmlns="http://www.w3.org/2000/svg">
<path d="M254.981 744.908C160.478 744.908 85.4311 708.774 40.959 644.845C-6.29257 578.137 -11.8516 483.634 24.282 383.572C74.3131 252.935 193.832 172.329 338.366 172.329H341.146C341.146 169.55 341.146 166.77 341.146 161.211C338.366 113.96 368.941 72.2672 413.413 58.3696L544.05 8.33852C557.947 2.77951 571.845 0 585.742 0C627.435 0 666.348 22.2361 685.804 61.1491L738.615 172.329C755.292 205.683 755.292 247.376 735.836 277.951C716.379 308.525 685.804 325.202 652.45 327.982C644.112 344.659 638.553 361.336 630.214 375.233C613.537 414.146 596.86 453.06 577.404 494.752C505.137 644.845 424.531 744.908 254.981 744.908Z" fill="#07401A"/>
<path d="M254.978 647.614C360.599 647.614 418.968 600.362 488.456 453.048C527.369 372.443 557.944 291.837 594.077 214.011L638.55 227.908C649.668 230.688 658.006 225.129 652.447 214.011L596.857 105.61C594.077 97.2715 582.959 97.2715 577.4 100.051L443.984 150.082C432.866 152.862 432.866 163.98 443.984 166.759L482.897 180.657C449.543 252.924 410.63 364.104 377.276 433.592C341.142 511.418 324.465 564.229 260.537 564.229C196.608 564.229 188.269 516.977 216.065 447.489C246.639 366.884 296.67 344.648 352.26 361.325C368.937 339.089 380.055 305.735 385.614 275.16C368.937 269.601 349.481 269.601 332.804 269.601C241.08 269.601 149.356 316.853 110.443 416.915C68.7507 547.552 113.223 647.614 254.978 647.614Z" fill="#D0EC1A"/>
</svg>
