<svg width="40" height="39" viewBox="0 0 40 39" fill="none" xmlns="http://www.w3.org/2000/svg">
<path d="M14.7385 33.5044C11.1096 33.5044 8.2278 32.1169 6.52008 29.662C4.70561 27.1004 4.49215 23.4715 5.87968 19.6291C7.80087 14.6127 12.3904 11.5174 17.9405 11.5174H18.0472C18.0472 11.4107 18.0472 11.3039 18.0472 11.0905C17.9405 9.27602 19.1146 7.67502 20.8223 7.14136L25.8388 5.22016C26.3724 5.0067 26.9061 4.89996 27.4397 4.89996C29.0407 4.89996 30.535 5.75383 31.2821 7.24809L33.3101 11.5174C33.9505 12.7982 33.9505 14.3992 33.2033 15.5733C32.4562 16.7473 31.2821 17.3877 30.0013 17.4945C29.6811 18.1349 29.4677 18.7753 29.1475 19.3089C28.5071 20.8032 27.8667 22.2974 27.1195 23.8984C24.3445 29.662 21.2492 33.5044 14.7385 33.5044Z" fill="#D0EC1A"/>
<path d="M14.7385 29.7688C18.7944 29.7688 21.0357 27.9543 23.7041 22.2975C25.1983 19.2022 26.3724 16.1069 27.7599 13.1184L29.4677 13.6521C29.8946 13.7588 30.2148 13.5453 30.0013 13.1184L27.8667 8.95583C27.7599 8.63563 27.333 8.63563 27.1195 8.74236L21.9963 10.6636C21.5694 10.7703 21.5694 11.1972 21.9963 11.304L23.4906 11.8376C22.2098 14.6127 20.7155 18.882 19.4348 21.5503C18.0472 24.5389 17.4068 26.5668 14.952 26.5668C12.4971 26.5668 12.1769 24.7523 13.2442 22.084C14.4183 18.9887 16.3395 18.1349 18.4742 18.7753C19.1146 17.9214 19.5415 16.6406 19.755 15.4665C19.1146 15.2531 18.3674 15.2531 17.727 15.2531C14.2048 15.2531 10.6826 17.0675 9.18838 20.9099C7.58738 25.9264 9.29511 29.7688 14.7385 29.7688Z" fill="#07401A"/>
</svg>
