<svg fill="none" xmlns="http://www.w3.org/2000/svg"><g filter="url(#a)"><mask id="c" style="mask-type:alpha" maskUnits="userSpaceOnUse" x="0" y="1" width="22" height="24"><path d="M20.2857 25H2.51946c-.94677 0-1.714284-.7675-1.714284-1.7143V2.71429C.805176 1.76751 1.57269 1 2.51946 1H14.0519L22 8.94805V23.2857C22 24.2325 21.2325 25 20.2857 25Z" fill="url(#b)"/></mask><g mask="url(#c)"><path d="M2.51758 1.17676H13.9775l7.8438 7.84375V23.2861c-.0002.8489-.6882 1.5371-1.5371 1.5371H2.51758c-.84874-.0002-1.536885-.6883-1.537111-1.5371V2.71387c.000226-.84874.688371-1.53689 1.537111-1.53711Z" fill="#fff" stroke="#E7E5E4" stroke-width=".353802"/><g filter="url(#d)"><path d="M21.9969 8.94805h-6.2338c-.9468 0-1.7143-.76751-1.7143-1.71428V1l7.9481 7.94805Z" fill="#F5F5F4"/><path d="M21.5703 8.77148h-5.8076c-.8489-.00022-1.5371-.68915-1.5371-1.53808V1.42676l7.3447 7.34472Z" stroke="#E7E5E4" stroke-width=".353802"/></g></g></g><defs><filter id="a" x=".205176" y=".7" width="22.3953" height="25.2" filterUnits="userSpaceOnUse" color-interpolation-filters="sRGB"><feFlood flood-opacity="0" result="BackgroundImageFix"/><feColorMatrix in="SourceAlpha" values="0 0 0 0 0 0 0 0 0 0 0 0 0 0 0 0 0 0 127 0" result="hardAlpha"/><feOffset dy=".3"/><feGaussianBlur stdDeviation=".3"/><feColorMatrix values="0 0 0 0 0 0 0 0 0 0 0 0 0 0 0 0 0 0 0.05 0"/><feBlend in2="BackgroundImageFix" result="effect1_dropShadow_11056_15021"/><feBlend in="SourceGraphic" in2="effect1_dropShadow_11056_15021" result="shape"/></filter><filter id="d" x="13.3412" y=".646198" width="9.36345" height="9.36052" filterUnits="userSpaceOnUse" color-interpolation-filters="sRGB"><feFlood flood-opacity="0" result="BackgroundImageFix"/><feColorMatrix in="SourceAlpha" values="0 0 0 0 0 0 0 0 0 0 0 0 0 0 0 0 0 0 127 0" result="hardAlpha"/><feOffset dy=".353802"/><feGaussianBlur stdDeviation=".353802"/><feColorMatrix values="0 0 0 0 0 0 0 0 0 0 0 0 0 0 0 0 0 0 0.05 0"/><feBlend in2="BackgroundImageFix" result="effect1_dropShadow_11056_15021"/><feBlend in="SourceGraphic" in2="effect1_dropShadow_11056_15021" result="shape"/></filter><linearGradient id="b" x1="11.4026" y1="1" x2="11.4026" y2="25" gradientUnits="userSpaceOnUse"><stop stop-color="#FF7979"/><stop offset="1" stop-color="#E85555"/></linearGradient></defs></svg>
